PathFileType	4	(X/Y/Z)	45_1_2_p0_0-185.trc
DataRate	CameraRate	NumFrames	NumMarkers	Units	OrigDataRate	OrigDataStartFrame	OrigNumFrames
59.0	59.0	7	27	m	59.0	116	186
Frame#	Time	RHip			RKnee			RAnkle			RBigToe			RSmallToe			RHeel			LHip			LKnee			LAnkle			LBigToe			LSmallToe			LHeel			Neck			Head			Nose			RShoulder			RElbow			RWrist			RThumb			RIndex			RPinky			LShoulder			LElbow			LWrist			LThumb			LIndex			LPinky			
		X1	Y1	Z1	X2	Y2	Z2	X3	Y3	Z3	X4	Y4	Z4	X5	Y5	Z5	X6	Y6	Z6	X7	Y7	Z7	X8	Y8	Z8	X9	Y9	Z9	X10	Y10	Z10	X11	Y11	Z11	X12	Y12	Z12	X13	Y13	Z13	X14	Y14	Z14	X15	Y15	Z15	X16	Y16	Z16	X17	Y17	Z17	X18	Y18	Z18	X19	Y19	Z19	X20	Y20	Z20	X21	Y21	Z21	X22	Y22	Z22	X23	Y23	Z23	X24	Y24	Z24	X25	Y25	Z25	X26	Y26	Z26	X27	Y27	Z27	
116	1.9661016949152543	0.5291324159151176	0.4689862159911608	0.7858631910190226	0.5383178688824973	0.5819059697420089	1.236466023343484	0.5900010425233689	0.7856783180354366	1.667109079548805	0.5868368398245417	0.6799627718926794	1.7499156670079885	0.6524603315622298	0.6940730681939373	1.7434950113730499	0.5614901443609386	0.8994176286169934	1.7248728800944244	0.3034552134317214	0.474836398530537	0.8099532524453188	0.3591811032155293	0.6567991145362737	1.2538682699961863	0.3988119823744139	0.8483419892160116	1.694042154263367	0.4494126724547391	0.6464226953666844	1.7488334842488733	0.385964418414585	0.7273799487469097	1.76993137468971	0.4106102014031132	0.9459864891278749	1.755673968635498	0.3505141369609507	0.220755313286035	0.3115440653654921	0.3409547049103606	0.07255962223358492	0.1030678408196599	0.3534597972959282	0.0817998713008235	0.2473189706136574	0.5336645112004881	0.2668981729927896	0.3523677343452982	0.6636011577398979	0.3867902828380024	0.5679257958897415	0.6471534161362245	0.32598447023906296	0.7990903593340642	0.5775276657215989	0.31782156142541707	0.9042855204254951	0.6001345721460946	0.26880246335540225	0.9190927190379599	0.6365250203392552	0.35610005415385076	0.9169210074145644	0.20080735612984685	0.27255541091367275	0.39662010728783836	0.1659595759317546	0.44077676528488136	0.6287018146595537	0.22040712567300608	0.37832499700463573	0.8736429560470501	0.2794609102973984	0.41784068133034485	0.964759758525633	0.2591574486780083	0.3563725731098287	0.999822842014367	0.23486923878935997	0.37768643746161845	0.9953356158003829
117	1.9830508474576272	0.529128970774929	0.4688960517746853	0.7857805431004852	0.5383460946662987	0.5819767397249221	1.2364269331846625	0.589957501845818	0.785697823287915	1.6671149409619934	0.5869286544197303	0.6470056113143766	1.7420859739786314	0.6516921909327937	0.6911496128431182	1.742934004930342	0.5611366023742587	0.8985399322980187	1.7248299525068131	0.30358621583094886	0.47360253963374765	0.8060898608350457	0.354023484079509	0.672146459266791	1.2557047122321614	0.39880854199676447	0.84855780635414	1.6941787949005904	0.44503705476577887	0.6616480714875783	1.7531812476791164	0.385722595887577	0.7259914514230107	1.7694387882224933	0.4136867457657636	0.9611360089375421	1.7586090645379788	0.3504659745347225	0.22062986680448674	0.31158042357171273	0.34098467290815904	0.07254568730203552	0.10305546183764125	0.35345370115609154	0.08171264782174464	0.2473425662157998	0.5336562874536177	0.26685733224859537	0.3523734717174541	0.6635528594669753	0.38685541119356437	0.5679355128077729	0.6480588146957382	0.3281280338240494	0.8023626755732616	0.5768976211951091	0.3172343906490673	0.9007905844608578	0.5961704754227541	0.28074886943933525	0.9193693164213591	0.6365826721678951	0.3559120864665487	0.9168039795307377	0.20077726000361013	0.2724569366555799	0.396792307326526	0.16644202555315696	0.4435253090375062	0.6322222344957883	0.22108097635360177	0.3806489499175694	0.8770991713634753	0.27949262654538415	0.417496984188135	0.9646720954071861	0.259110072641924	0.3559543074537928	0.999747933071402	0.24026779355164082	0.3654389600856369	0.9949514275785996
118	2.0	0.5269013701831857	0.4588444325157767	0.790207361905025	0.5386904061041837	0.5805224204974552	1.2325790325680201	0.5913318220815589	0.7889232531549544	1.6715269675663447	0.5900118507925948	0.6589814268248979	1.7446831883118796	0.6556753963080612	0.6734207169992908	1.7384728964271914	0.5612892396756576	0.899985944601479	1.7256074057814212	0.3036081345401702	0.47373246137635905	0.8061419869826538	0.36030203122328336	0.6600486116515477	1.258355560093989	0.3996283677717706	0.8483590923035682	1.6983923390603515	0.44934899009325935	0.6465008409239804	1.7488876404931435	0.3859185801463363	0.7271952846635387	1.769888497352236	0.4134894804434258	0.9608169023063015	1.7587125924662794	0.3504992435721783	0.2208255222442948	0.31153795289317426	0.34099583646559406	0.07248958344513587	0.10309646537208077	0.35345457048774487	0.0817546887898687	0.24734363925771888	0.533639735444385	0.26681795343910736	0.35235249806656993	0.6635130020147487	0.38683437277870575	0.5679538038459506	0.6444308065555012	0.34100276095538046	0.8020469316402152	0.5768968942404401	0.31725470100526193	0.900677019916494	0.5960830301992659	0.2807613026047802	0.9194393850456245	0.6406532793298078	0.3429593305240088	0.9166876322776798	0.20075499673476013	0.27262307371625316	0.39666843662464407	0.16597264253206048	0.4409285044760212	0.6288641492064965	0.22057490253519696	0.37807889718959453	0.8736547010782646	0.28241768419558594	0.4188628066402581	0.9610592112795	0.2590532142809944	0.35602925639557154	0.9996033827983326	0.2402675306172994	0.36506267615250465	0.9949075840386442
119	2.016949152542373	0.5261354784528994	0.458208470067242	0.7862839060268814	0.5386818991476063	0.5804405613218683	1.2325023517886653	0.5913327235243461	0.7889711608900428	1.67154723059679	0.5869085871665112	0.6468291095241179	1.742082859616257	0.6551494974008479	0.6715282260662709	1.7380873749667598	0.5645778325923948	0.9133868308218267	1.7278988570294675	0.3035817360572354	0.4733342867515339	0.806045269394887	0.355063671288169	0.6752163061308903	1.2603000421598771	0.4008487597108533	0.8522082208707084	1.7032654476602194	0.4448721731559612	0.6606206778308662	1.753032704009703	0.3856717580374499	0.7251030496927391	1.7690904564310923	0.4136443561030489	0.961361548065344	1.7586703123356204	0.3504973367729879	0.22075412808845357	0.3115454144517292	0.3409844507149586	0.07249150596862813	0.10304162183331313	0.3534946657082459	0.0817070444946169	0.24734200649296237	0.5336250992489203	0.2667737123172018	0.35236870167718	0.6634639071175169	0.3869682609872024	0.5679907895793089	0.6443429742125054	0.34085933993988937	0.8020640871781642	0.5768579733980564	0.3172272593782844	0.9006673083808798	0.5959609328915334	0.28091084066338956	0.9194137327856035	0.6364449224725187	0.35578511020939185	0.9169018113032203	0.2007572830147968	0.27270260403342356	0.3965985423133812	0.16589245464944447	0.4410567616380791	0.6288862998769842	0.22600378514708394	0.3647438025695711	0.8737584759159696	0.2831524531054643	0.4187590015782314	0.9639793234583162	0.2591718275040164	0.3555857577670319	0.9997037028276764	0.24050345527814657	0.36502637552461936	0.9949388935617477
120	2.0338983050847457	0.5268037847849282	0.45885449445777216	0.7902320617830992	0.538674217468284	0.5805987695810007	1.2324711098899914	0.5826604333241109	0.8036592695211713	1.6716130557075932	0.5843984905780034	0.6393221852694656	1.7415663376155344	0.6443193636380734	0.6797643807481305	1.7416890937311484	0.5653048457280957	0.9154425081565952	1.731707276954609	0.30363567004640707	0.4732749264837998	0.8060677181825859	0.3554672334101081	0.6734972718381117	1.2558022919145444	0.39875846220706235	0.8485812656796313	1.6940553465170816	0.447997308850866	0.6404685088051707	1.7446378499813786	0.38532319160163414	0.7244400136449106	1.7688312057205935	0.41254546932457326	0.9604769250126466	1.7542021164342771	0.34662268428386017	0.21920058601817083	0.3123318789045855	0.34441419524675376	0.07387845945796459	0.10205865660388286	0.35352295603804035	0.08178901278470291	0.2473007583534195	0.5331280451292012	0.2660608803002567	0.3493788243063237	0.6679243067766366	0.37574661292767536	0.5730994366573492	0.6442808983863832	0.3408356743179983	0.8021426591909854	0.5767961146168896	0.3169169622723563	0.9008062785672251	0.5931875781601017	0.28068164317621236	0.9231187937985706	0.6360713519468428	0.3564270375603385	0.9172801316954406	0.2003285261386487	0.271914847477032	0.3935180568871881	0.16584561136275833	0.4408369252370226	0.6285485154992826	0.22081978132735408	0.3770164054684989	0.8701862426951374	0.2804339779069526	0.40502735592532413	0.9574785073226243	0.2584481349537509	0.3550550563339756	0.9960968048260731	0.24031469409714015	0.3650083288124471	0.9948037391282196
121	2.0508474576271185	0.5268355533013449	0.4586215582671892	0.7901523177252879	0.5387305611049079	0.5805795554926934	1.232408798921791	0.5853863970811575	0.8041051009695932	1.6714165636927791	0.5855056801916152	0.6418766407204566	1.741542427219508	0.6486838435527799	0.6622757331894832	1.7367440057056198	0.5640845368838254	0.9120694864864612	1.7272866121078774	0.3036490880520154	0.47304630103062806	0.8059868484331076	0.36073636018837907	0.6581810216336703	1.2542328982376452	0.40006739396925084	0.8521179729302172	1.6990618325466262	0.4489893188071894	0.6429541577060709	1.7485422943210887	0.39017867780009236	0.7072665869481473	1.7640546926797047	0.4132358030456116	0.9596769703587428	1.758353287014426	0.34658504026263914	0.21931378730709497	0.3122399448392216	0.34103794574332286	0.07238094735260561	0.10295516482610385	0.35588972194485846	0.09176660980062556	0.24405519689412955	0.5331206984711129	0.26610599760663517	0.3493577608726348	0.663253990677755	0.3745848336890343	0.5702849456933936	0.6441343105402506	0.3406441767380432	0.8023291351698092	0.5767615263868927	0.316514530239357	0.900909884019469	0.5971089344276531	0.2682523475924442	0.9230305242972953	0.6321943078258857	0.3549809909915434	0.9185360334817588	0.2008027189007226	0.27248226155443633	0.39666557240096667	0.16589592222467497	0.4407790906815156	0.6286441662516875	0.22630545966531282	0.3636450921765499	0.8703321444249232	0.2882907415591381	0.4045745035749807	0.9563200243580448	0.25867286093235314	0.35473994209088333	0.9960818179706474	0.24047778451397653	0.3651060702142589	0.9948292585682276
122	2.0677966101694913	0.5268435216254853	0.458782107635938	0.7901493352750637	0.5387458018134661	0.5806860071478803	1.2324004355564746	0.5867254034821757	0.807394787286072	1.6758717173341688	0.5849099483005091	0.6402657694538871	1.7414595824958377	0.648336960315373	0.6614553632893786	1.7367994023675983	0.565492194972823	0.9154646215535316	1.7314389183480392	0.3036461721528776	0.4734072620948182	0.8059521325736847	0.3614717986460199	0.6584130424825079	1.258575410414532	0.4000943156031587	0.8521329351473246	1.6991394981207466	0.4489885248059343	0.6437358955960588	1.7486212327275608	0.3901541768901243	0.7079259027569038	1.764273652699511	0.41250531797167894	0.9600708533389904	1.754538114925892	0.3550929803286841	0.2088483973104829	0.31377693962448167	0.3444653262196661	0.07396379224961404	0.10194108976923295	0.3530948517859767	0.08120257229584005	0.24415660830559976	0.5331540669512282	0.2660997273268043	0.3493288875560129	0.6631544620342542	0.3744171047517351	0.5703748530634024	0.6482360196159935	0.3279097082393535	0.806339021286933	0.5770432857199523	0.31703870355475977	0.9048471378615845	0.5969981519064332	0.2683829367006247	0.9234036227336666	0.6285074380935902	0.34298219407518565	0.9234607398802518	0.206290068885502	0.26083662349343884	0.39858735915637594	0.17171857016031408	0.42732829658627247	0.6298673534384048	0.2321948700983493	0.35208784157052614	0.8779010779715706	0.2975737471662032	0.3931176782341924	0.9590670783260039	0.2590550110070827	0.3539162864209748	0.9961708035944158	0.24135671097086095	0.36550541762295496	0.9987860638666228
